<svg width="201" height="201" viewBox="0 0 201 201" fill="none" xmlns="http://www.w3.org/2000/svg">
<g id="Icon" clip-path="url(#clip0_1_12)">
<path id="Vector" d="M105.682 34.0938C105.682 34.0938 106.036 33.7403 106.743 33.0335C107.449 32.3266 107.803 31.006 107.803 29.0714C107.803 27.1369 107.096 25.4628 105.682 24.0491C104.269 22.6354 102.594 21.9286 100.66 21.9286C98.7254 21.9286 97.0513 22.6354 95.6376 24.0491C94.224 25.4628 93.5171 27.1369 93.5171 29.0714C93.5171 31.006 94.224 32.6801 95.6376 34.0938C97.0513 35.5074 98.7254 36.2143 100.66 36.2143C102.594 36.2143 104.269 35.5074 105.682 34.0938ZM200.66 132.643V171.929C200.66 173.565 199.916 174.682 198.428 175.277C197.833 175.426 197.386 175.5 197.089 175.5C196.196 175.5 195.34 175.165 194.522 174.496L184.142 164.116C175.288 174.756 163.439 183.182 148.595 189.395C133.751 195.608 117.773 198.714 100.66 198.714C83.5469 198.714 67.5685 195.608 52.7247 189.395C37.881 183.182 26.032 174.756 17.1778 164.116L6.79837 174.496C6.12872 175.165 5.27307 175.5 4.2314 175.5C3.93378 175.5 3.48735 175.426 2.89212 175.277C1.40402 174.682 0.659973 173.565 0.659973 171.929V132.643C0.659973 131.601 0.994795 130.746 1.66444 130.076C2.33408 129.406 3.18974 129.071 4.2314 129.071H43.5171C45.154 129.071 46.2701 129.815 46.8653 131.304C47.4606 132.717 47.2001 134.019 46.0841 135.21L34.9234 146.371C39.9085 153.141 46.9583 158.852 56.0729 163.502C65.1875 168.153 75.2879 171.222 86.3743 172.71V100.5H64.9457C63.0112 100.5 61.3371 99.7932 59.9234 98.3795C58.5097 96.9658 57.8028 95.2917 57.8028 93.3572V79.0714C57.8028 77.1369 58.5097 75.4628 59.9234 74.0491C61.3371 72.6354 63.0112 71.9286 64.9457 71.9286H86.3743V53.7366C82.0588 51.2068 78.599 47.7656 75.9948 43.413C73.3906 39.0603 72.0885 34.2798 72.0885 29.0714C72.0885 21.1845 74.8787 14.4509 80.4591 8.87054C86.0394 3.29019 92.7731 0.500015 100.66 0.500015C108.547 0.500015 115.281 3.29019 120.861 8.87054C126.441 14.4509 129.231 21.1845 129.231 29.0714C129.231 34.2798 127.929 39.0603 125.325 43.413C122.721 47.7656 119.261 51.2068 114.946 53.7366V71.9286H136.374C138.309 71.9286 139.983 72.6354 141.397 74.0491C142.81 75.4628 143.517 77.1369 143.517 79.0714V93.3572C143.517 95.2917 142.81 96.9658 141.397 98.3795C139.983 99.7932 138.309 100.5 136.374 100.5H114.946V172.71C126.032 171.222 136.132 168.153 145.247 163.502C154.362 158.852 161.411 153.141 166.397 146.371L155.236 135.21C154.12 134.019 153.859 132.717 154.455 131.304C155.05 129.815 156.166 129.071 157.803 129.071H197.089C198.13 129.071 198.986 129.406 199.656 130.076C200.325 130.746 200.66 131.601 200.66 132.643Z" fill="#F44336"/>
</g>
<defs>
<clipPath id="clip0_1_12">
<rect width="200" height="200" fill="white" transform="matrix(1 0 0 -1 0.659973 200.5)"/>
</clipPath>
</defs>
</svg>
